<svg xmlns="http://www.w3.org/2000/svg" width="17.675" height="17.679" viewBox="0 0 17.675 17.679">
  <defs>
    <style>
      .cls-1 {
        fill: #7c8196;
      }
    </style>
  </defs>
  <path id="联合_24" data-name="联合 24" class="cls-1" d="M2239.245,585.577l-4.13-4.128,2.346-2.349,4.129,4.129a.28.28,0,0,1,0,.394l-1.953,1.954a.286.286,0,0,1-.2.08A.279.279,0,0,1,2239.245,585.577Zm-10.943-2.03a2.781,2.781,0,0,1,0-3.932l0,0,6.421-6.421a.838.838,0,0,1,1.18,0l.59.59a.554.554,0,0,0,.782.005l.005-.005,1.548-1.548a.566.566,0,0,1,.8,0h0a.552.552,0,0,1-.007.774l-1.563,1.561a.554.554,0,0,0,0,.782l0,0,.591.59a.837.837,0,0,1,0,1.18l-6.422,6.424a2.773,2.773,0,0,1-3.928,0Zm-2.034-10.944a.28.28,0,0,1,0-.391l1.953-1.953a.28.28,0,0,1,.392,0l4.128,4.127-2.345,2.347Zm17.035,1.491a.553.553,0,0,1-.553-.552c0-.011,0-.021,0-.032v-.2a4.219,4.219,0,0,0-1.236-2.986,4.243,4.243,0,0,0-1.343-.9,4.169,4.169,0,0,0-1.645-.332h-.2a.552.552,0,0,1-.582-.522c0-.01,0-.02,0-.031h0a.553.553,0,0,1,.525-.552c.086,0,.171-.007.257-.007a5.333,5.333,0,0,1,5.337,5.328v.266a.554.554,0,0,1-.553.526Zm-1.953,0a.553.553,0,0,1-.554-.551c0-.016,0-.032,0-.047a1.684,1.684,0,0,0,.008-.185,2.223,2.223,0,0,0-2.236-2.224,1.874,1.874,0,0,0-.212.011.554.554,0,0,1-.607-.493c0-.02,0-.04,0-.06a.551.551,0,0,1,.494-.552,3.07,3.07,0,0,1,.331-.018,3.325,3.325,0,0,1,3.34,3.287c0,.111,0,.222-.011.332a.554.554,0,0,1-.553.5Z" transform="translate(-2226.188 -567.978)"/>
</svg>
