<svg xmlns="http://www.w3.org/2000/svg" width="16.337" height="16.289" viewBox="0 0 16.337 16.289">
  <defs>
    <style>
      .cls-1 {
        fill: #337fe5;
      }
    </style>
  </defs>
  <path id="路径_1860" data-name="路径 1860" class="cls-1" d="M153.906,150.412l3.04,3.04a.978.978,0,0,1,0,1.38l-3.04,3.04a.978.978,0,0,1-1.38,0l-3.04-3.04a.978.978,0,0,1,0-1.38l3.04-3.04A.973.973,0,0,1,153.906,150.412Zm-2.835,9.751h4.3a.976.976,0,0,1,.975.975v4.3a.976.976,0,0,1-.975.975h-4.3a.976.976,0,0,1-.975-.975v-4.3A.976.976,0,0,1,151.07,160.163Zm9.191-9.141h4.3a.976.976,0,0,1,.975.975v4.3a.976.976,0,0,1-.975.975h-4.3a.976.976,0,0,1-.975-.975V152A.976.976,0,0,1,160.262,151.022Zm0,9.141h4.3a.976.976,0,0,1,.975.975v4.3a.976.976,0,0,1-.975.975h-4.3a.976.976,0,0,1-.975-.975v-4.3A.976.976,0,0,1,160.262,160.163Z" transform="translate(-149.2 -150.125)"/>
</svg>
