<svg xmlns="http://www.w3.org/2000/svg" width="13" height="13" viewBox="0 0 13 13">
  <defs>
    <style>
      .cls-1 {
        fill: #7c8196;
      }
    </style>
  </defs>
  <path id="路径_211" data-name="路径 211" class="cls-1" d="M6.668.094,6.615.062c.112.153.112.082.053.033Zm5.925,3A.4.4,0,0,0,13,2.7V.563a.4.4,0,0,0-.405-.4H10.447a.4.4,0,0,0-.405.4v.662H8.723a.4.4,0,0,0-.124,0H2.959V.563a.4.4,0,0,0-.406-.4H.406A.4.4,0,0,0,0,.563V2.694a.4.4,0,0,0,.406.4h.668v7.03H.406a.4.4,0,0,0-.406.4V12.66a.4.4,0,0,0,.406.4H2.553a.4.4,0,0,0,.405-.4V12H10.04v.662a.4.4,0,0,0,.406.4h2.148a.4.4,0,0,0,.406-.4V10.53a.4.4,0,0,0-.406-.4h-.668V4.471a.2.2,0,0,0,0-.041V3.1h.669ZM1.887,5.933a.432.432,0,0,0,.069-.055L5.828,2.033H7.675L1.887,7.779ZM2.555,3.1a.4.4,0,0,0,.405-.4V2.032H4.679L1.886,4.806V3.1ZM1.887,8.919,8.823,2.032H10.04v.495l-7.658,7.6h-.5V8.919Zm9.227-1.685L7.224,11.1a.411.411,0,0,0-.072.1H5.3l5.811-5.769Zm-.668,2.893a.4.4,0,0,0-.405.4v.662H8.276l2.839-2.818v1.753Zm.668-5.844L4.153,11.193H2.959v-.5l7.654-7.6h.5Z" transform="translate(0 -0.062)"/>
</svg>
