<svg xmlns="http://www.w3.org/2000/svg" width="13.257" height="14" viewBox="0 0 13.257 14">
  <defs>
    <style>
      .cls-1 {
        fill: #7c8196;
      }
    </style>
  </defs>
  <path id="路径_213" data-name="路径 213" class="cls-1" d="M84.55,69.348V72.9a1.074,1.074,0,0,0,1.072,1.078h10A1.075,1.075,0,0,0,96.694,72.9V69.348a1.079,1.079,0,0,0,.558-.96V66.144a1.666,1.666,0,0,0-1.662-1.671H93.374a.559.559,0,0,1-.558-.561V62.24a2.224,2.224,0,0,0-4.448-.084v1.755a.558.558,0,0,1-.558.561H85.657A1.666,1.666,0,0,0,84,66.142v2.246A1.084,1.084,0,0,0,84.55,69.348ZM95.59,72.9H93.877V71.183a.556.556,0,0,0-1.072,0V72.9H91.1V71.183a.556.556,0,0,0-1.072,0V72.9h-1.7V71.183a.556.556,0,0,0-1.072,0v1.671H85.59V69.5h10v3.4ZM85.031,66.155a.558.558,0,0,1,.558-.561h2.219a1.653,1.653,0,0,0,1.186-.489,1.678,1.678,0,0,0,.486-1.192V62.24a1.109,1.109,0,1,1,2.218-.059v1.73a1.666,1.666,0,0,0,1.662,1.671h2.259a.559.559,0,0,1,.558.561v2.233H85.034V66.155Z" transform="translate(-83.995 -59.974)"/>
</svg>
