<svg xmlns="http://www.w3.org/2000/svg" width="14" height="14" viewBox="0 0 14 14">
  <defs>
    <style>
      .cls-1 {
        fill: #7c8196;
      }
    </style>
  </defs>
  <path id="路径_210" data-name="路径 210" class="cls-1" d="M110.425,101.816l-7.734,7.711a1.156,1.156,0,0,1-.813.4,1.13,1.13,0,0,1-.773-.438l-3.865-3.855a1.123,1.123,0,0,1-.44-.777,1.207,1.207,0,0,1,.358-.858l7.724-7.716a1.22,1.22,0,0,1,1.721,0l3.862,3.858A1.172,1.172,0,0,1,110.425,101.816Zm-4.685-4.87-.955.954,2.672,2.671-.759.764-2.678-2.673-.955.954,2.036,2.025-.768.766-2.032-2.028-.955.953L104.02,104l-.764.762-2.678-2.669-.955.953,2.034,2.03-.764.762-2.038-2.028-.955.953,4.018,4.006,7.839-7.817Zm0,.194" transform="translate(-96.8 -95.925)"/>
</svg>
