<svg xmlns="http://www.w3.org/2000/svg" width="13.981" height="14.252" viewBox="0 0 13.981 14.252">
  <defs>
    <style>
      .cls-1 {
        fill: #7c8196;
      }
    </style>
  </defs>
  <path id="路径_212" data-name="路径 212" class="cls-1" d="M27.631,5.536v6.713a.328.328,0,0,1-.325.33H26.8a.329.329,0,0,1-.326-.33V.33A.329.329,0,0,1,26.8,0h.511a.328.328,0,0,1,.325.33V.808a8.369,8.369,0,0,0,3.038,1,11.181,11.181,0,0,0,3.462,0,.331.331,0,0,1,.289.488A17.06,17.06,0,0,1,33.2,4.1a9.76,9.76,0,0,1,1.041,1.752c.176.562-.339.495-.339.495a18.117,18.117,0,0,1-3.629-.009,8.669,8.669,0,0,1-2.641-.8Zm1.63,4.294c2.655.3,4.571,1.152,4.575,2.151,0,1.257-2.987,2.27-6.676,2.27s-6.679-1.02-6.679-2.274c0-.986,1.868-1.832,4.474-2.142v.608a.332.332,0,0,1-.274.327c-1.454.244-2.434.7-2.434,1.211,0,.776,2.2,1.409,4.91,1.409s4.909-.63,4.909-1.405c0-.528-1.021-.986-2.531-1.228a.332.332,0,0,1-.273-.327v-.6Z" transform="translate(-20.48)"/>
</svg>
