<svg xmlns="http://www.w3.org/2000/svg" width="16.362" height="17.001" viewBox="0 0 16.362 17.001">
  <defs>
    <style>
      .cls-1, .cls-2 {
        fill: #7c8196;
      }

      .cls-1 {
        opacity: 0;
      }

      .cls-2 {
        stroke: rgba(0,0,0,0);
        stroke-miterlimit: 10;
      }
    </style>
  </defs>
  <g id="组_3521" data-name="组 3521" transform="translate(0.181 0.5)">
    <rect id="矩形_2816" data-name="矩形 2816" class="cls-1" width="16" height="16"/>
    <path id="联合_158" data-name="联合 158" class="cls-2" d="M.742,16a.772.772,0,0,1,.052-1.543H14.62a.772.772,0,0,1,0,1.543H.742ZM.367,11.567V7.146a1.391,1.391,0,1,1,2.781,0v4.421a1.391,1.391,0,1,1-2.781,0Zm11.86,0V1.391a1.391,1.391,0,1,1,2.781,0V11.566a1.391,1.391,0,1,1-2.781,0Zm-5.93,0V4.522a1.391,1.391,0,0,1,2.781,0v7.044a1.391,1.391,0,0,1-2.781,0Z" transform="translate(0.319 0)"/>
  </g>
</svg>
