<?xml version="1.0" standalone="no"?><!DOCTYPE svg PUBLIC "-//W3C//DTD SVG 1.1//EN" "http://www.w3.org/Graphics/SVG/1.1/DTD/svg11.dtd"><svg t="1649662235845" class="icon" viewBox="0 0 1024 1024" version="1.1" xmlns="http://www.w3.org/2000/svg" p-id="2203" xmlns:xlink="http://www.w3.org/1999/xlink" width="15" height="15"><defs><style type="text/css">@font-face { font-family: feedback-iconfont; src: url("//at.alicdn.com/t/font_1031158_u69w8yhxdu.woff2?t=1630033759944") format("woff2"), url("//at.alicdn.com/t/font_1031158_u69w8yhxdu.woff?t=1630033759944") format("woff"), url("//at.alicdn.com/t/font_1031158_u69w8yhxdu.ttf?t=1630033759944") format("truetype"); }
</style></defs><path d="M85.333333 512C85.333333 276.352 276.309333 85.333333 512 85.333333c235.648 0 426.666667 190.976 426.666667 426.666667 0 235.648-190.976 426.666667-426.666667 426.666667-235.648 0-426.666667-190.976-426.666667-426.666667z m426.666667-30.165333l-105.685333-105.706667a21.269333 21.269333 0 0 0-30.08 0.106667 21.205333 21.205333 0 0 0-0.106667 30.08L481.834667 512l-105.706667 105.685333a21.269333 21.269333 0 0 0 0.106667 30.08 21.205333 21.205333 0 0 0 30.08 0.106667L512 542.165333l105.685333 105.706667a21.269333 21.269333 0 0 0 30.08-0.106667 21.205333 21.205333 0 0 0 0.106667-30.08L542.165333 512l105.706667-105.685333a21.269333 21.269333 0 0 0-0.106667-30.08 21.205333 21.205333 0 0 0-30.08-0.106667L512 481.834667z" fill="#2173E9" p-id="2204"></path></svg>