<svg xmlns="http://www.w3.org/2000/svg" xmlns:xlink="http://www.w3.org/1999/xlink" width="1920" height="60.001" viewBox="0 0 1920 60.001"><defs><style>.a{fill:#15b0eb;}.b{fill:#fff;}.c{fill:rgba(9,97,255,0.2);}.d{fill:rgba(3,17,42,0.3);}.e{clip-path:url(#a);}.f{opacity:0.1;}.g{opacity:0.5;}.h{fill:#21caff;}.i,.n{opacity:0.2;}.i{fill:url(#b);}.j{fill:url(#e);}.k,.l{fill:none;stroke:#21caff;}.k{opacity:0.3;}.l,.p{opacity:0.8;}.m{clip-path:url(#f);}.n,.o,.p{fill:url(#g);}.o{opacity:0.4;}</style><clipPath id="a"><path class="a" d="M-4003.576,3424.163h-1920v48h778.606a42.287,42.287,0,0,0,5.846,4.78,43.466,43.466,0,0,0,24.359,7.22h302.378a43.472,43.472,0,0,0,24.36-7.22,42.185,42.185,0,0,0,5.845-4.78h778.606Z"/></clipPath><linearGradient id="b" x1="0.5" x2="0.5" y2="1" gradientUnits="objectBoundingBox"><stop offset="0" stop-color="#217aff" stop-opacity="0"/><stop offset="1" stop-color="#5197ff"/></linearGradient><linearGradient id="e" x1="0.5" x2="0.5" y2="1" gradientUnits="objectBoundingBox"><stop offset="0" stop-color="#21caff" stop-opacity="0"/><stop offset="1" stop-color="#21caff"/></linearGradient><clipPath id="f"><rect class="b" width="28" height="14" transform="translate(946 46)"/></clipPath><radialGradient id="g" cx="0.5" cy="0.5" r="0.5" xlink:href="#e"/></defs><g transform="translate(0 0.001)"><path class="c" d="M-1369.189,60a43.46,43.46,0,0,1-24.359-7.221A42.159,42.159,0,0,1-1399.4,48H-2178V0H-258V48h-778.6a42.168,42.168,0,0,1-5.849,4.78A43.461,43.461,0,0,1-1066.811,60Z" transform="translate(2178)"/><path class="d" d="M-1369.189,60a43.46,43.46,0,0,1-24.359-7.221A42.159,42.159,0,0,1-1399.4,48H-2178V0H-258V48h-778.6a42.168,42.168,0,0,1-5.849,4.78A43.461,43.461,0,0,1-1066.811,60Z" transform="translate(2178)"/><g class="e" transform="translate(5923.576 -3424.164)"><g class="f"><rect class="a" width="0.597" height="71.189" transform="translate(-5909.224 3415.786)"/><rect class="a" width="0.597" height="1989.478" transform="translate(-5972.848 3429.799) rotate(-90)"/><rect class="a" width="0.597" height="1989.478" transform="translate(-5972.848 3448.093) rotate(-90)"/><rect class="a" width="0.597" height="1989.478" transform="translate(-5972.848 3466.388) rotate(-90)"/><rect class="a" width="0.597" height="71.189" transform="translate(-5890.155 3415.786)"/><rect class="a" width="0.597" height="71.189" transform="translate(-5871.086 3415.786)"/><rect class="a" width="0.597" height="71.189" transform="translate(-5852.017 3415.786)"/><rect class="a" width="0.597" height="71.189" transform="translate(-5832.949 3415.786)"/><rect class="a" width="0.597" height="71.189" transform="translate(-5813.88 3415.786)"/><rect class="a" width="0.597" height="71.189" transform="translate(-5794.811 3415.786)"/><rect class="a" width="0.597" height="71.189" transform="translate(-5775.742 3415.786)"/><rect class="a" width="0.597" height="71.189" transform="translate(-5756.674 3415.786)"/><rect class="a" width="0.597" height="71.189" transform="translate(-5737.605 3415.786)"/><rect class="a" width="0.597" height="71.189" transform="translate(-5718.536 3415.786)"/><rect class="a" width="0.597" height="71.189" transform="translate(-5699.468 3415.786)"/><rect class="a" width="0.597" height="71.189" transform="translate(-5680.399 3415.786)"/><rect class="a" width="0.597" height="71.189" transform="translate(-5661.33 3415.786)"/><rect class="a" width="0.597" height="71.189" transform="translate(-5642.261 3415.786)"/><rect class="a" width="0.597" height="71.189" transform="translate(-5623.193 3415.786)"/><rect class="a" width="0.597" height="71.189" transform="translate(-5604.124 3415.786)"/><rect class="a" width="0.597" height="71.189" transform="translate(-5585.055 3415.786)"/><rect class="a" width="0.597" height="71.189" transform="translate(-5565.986 3415.786)"/><rect class="a" width="0.597" height="71.189" transform="translate(-5546.918 3415.786)"/><rect class="a" width="0.597" height="71.189" transform="translate(-5527.849 3415.786)"/><rect class="a" width="0.597" height="71.189" transform="translate(-5508.78 3415.786)"/><rect class="a" width="0.597" height="71.189" transform="translate(-5489.712 3415.786)"/><rect class="a" width="0.597" height="71.189" transform="translate(-5470.643 3415.786)"/><rect class="a" width="0.597" height="71.189" transform="translate(-5451.574 3415.786)"/><rect class="a" width="0.597" height="71.189" transform="translate(-5432.505 3415.786)"/><rect class="a" width="0.597" height="71.189" transform="translate(-5413.437 3415.786)"/><rect class="a" width="0.597" height="71.189" transform="translate(-5394.368 3415.786)"/><rect class="a" width="0.597" height="71.189" transform="translate(-5375.299 3415.786)"/><rect class="a" width="0.597" height="71.189" transform="translate(-5356.23 3415.786)"/><rect class="a" width="0.597" height="71.189" transform="translate(-5337.162 3415.786)"/><rect class="a" width="0.597" height="71.189" transform="translate(-5318.093 3415.786)"/><rect class="a" width="0.597" height="71.189" transform="translate(-5299.024 3415.786)"/><rect class="a" width="0.597" height="71.189" transform="translate(-5279.956 3415.786)"/><rect class="a" width="0.597" height="71.189" transform="translate(-5260.887 3415.786)"/><rect class="a" width="0.597" height="71.189" transform="translate(-5241.818 3415.786)"/><rect class="a" width="0.597" height="71.189" transform="translate(-5222.75 3415.786)"/><rect class="a" width="0.597" height="71.189" transform="translate(-5203.681 3415.786)"/><rect class="a" width="0.597" height="71.189" transform="translate(-5184.612 3415.786)"/><rect class="a" width="0.597" height="71.189" transform="translate(-5165.543 3415.786)"/><rect class="a" width="0.597" height="71.189" transform="translate(-5146.475 3415.786)"/><rect class="a" width="0.597" height="71.189" transform="translate(-5127.406 3415.786)"/><rect class="a" width="0.597" height="71.189" transform="translate(-5108.337 3415.786)"/><rect class="a" width="0.597" height="71.189" transform="translate(-5089.269 3415.786)"/><rect class="a" width="0.597" height="71.189" transform="translate(-5070.2 3415.786)"/><rect class="a" width="0.597" height="71.189" transform="translate(-5051.131 3415.786)"/><rect class="a" width="0.597" height="71.189" transform="translate(-5032.063 3415.786)"/><rect class="a" width="0.597" height="71.189" transform="translate(-5012.994 3415.786)"/><rect class="a" width="0.597" height="71.189" transform="translate(-4993.925 3415.786)"/><rect class="a" width="0.597" height="71.189" transform="translate(-4974.856 3415.786)"/><rect class="a" width="0.597" height="71.189" transform="translate(-4955.788 3415.786)"/><rect class="a" width="0.597" height="71.189" transform="translate(-4936.719 3415.786)"/><rect class="a" width="0.597" height="71.189" transform="translate(-4917.65 3415.786)"/><rect class="a" width="0.597" height="71.189" transform="translate(-4898.582 3415.786)"/><rect class="a" width="0.597" height="71.189" transform="translate(-4879.513 3415.786)"/><rect class="a" width="0.597" height="71.189" transform="translate(-4860.444 3415.786)"/><rect class="a" width="0.597" height="71.189" transform="translate(-4841.375 3415.786)"/><rect class="a" width="0.597" height="71.189" transform="translate(-4822.307 3415.786)"/><rect class="a" width="0.597" height="71.189" transform="translate(-4803.238 3415.786)"/><rect class="a" width="0.597" height="71.189" transform="translate(-4784.169 3415.786)"/><rect class="a" width="0.597" height="71.189" transform="translate(-4765.101 3415.786)"/><rect class="a" width="0.597" height="71.189" transform="translate(-4746.032 3415.786)"/><rect class="a" width="0.597" height="71.189" transform="translate(-4726.963 3415.786)"/><rect class="a" width="0.597" height="71.189" transform="translate(-4707.895 3415.786)"/><rect class="a" width="0.597" height="71.189" transform="translate(-4688.826 3415.786)"/><rect class="a" width="0.597" height="71.189" transform="translate(-4669.757 3415.786)"/><rect class="a" width="0.597" height="71.189" transform="translate(-4650.688 3415.786)"/><rect class="a" width="0.597" height="71.189" transform="translate(-4631.62 3415.786)"/><rect class="a" width="0.597" height="71.189" transform="translate(-4612.551 3415.786)"/><rect class="a" width="0.597" height="71.189" transform="translate(-4593.482 3415.786)"/><rect class="a" width="0.597" height="71.189" transform="translate(-4574.413 3415.786)"/><rect class="a" width="0.597" height="71.189" transform="translate(-4555.345 3415.786)"/><rect class="a" width="0.597" height="71.189" transform="translate(-4536.276 3415.786)"/><rect class="a" width="0.597" height="71.189" transform="translate(-4517.207 3415.786)"/><rect class="a" width="0.597" height="71.189" transform="translate(-4498.138 3415.786)"/><rect class="a" width="0.597" height="71.189" transform="translate(-4479.07 3415.786)"/><rect class="a" width="0.597" height="71.189" transform="translate(-4460.001 3415.786)"/><rect class="a" width="0.597" height="71.189" transform="translate(-4440.932 3415.786)"/><rect class="a" width="0.597" height="71.189" transform="translate(-4421.864 3415.786)"/><rect class="a" width="0.597" height="71.189" transform="translate(-4402.795 3415.786)"/><rect class="a" width="0.597" height="71.189" transform="translate(-4383.726 3415.786)"/><rect class="a" width="0.597" height="71.189" transform="translate(-4364.657 3415.786)"/><rect class="a" width="0.597" height="71.189" transform="translate(-4345.589 3415.786)"/><rect class="a" width="0.597" height="71.189" transform="translate(-4326.52 3415.786)"/><rect class="a" width="0.597" height="71.189" transform="translate(-4307.451 3415.786)"/><rect class="a" width="0.597" height="71.189" transform="translate(-4288.382 3415.786)"/><rect class="a" width="0.597" height="71.189" transform="translate(-4269.314 3415.786)"/><rect class="a" width="0.597" height="71.189" transform="translate(-4250.245 3415.786)"/><rect class="a" width="0.597" height="71.189" transform="translate(-4231.176 3415.786)"/><rect class="a" width="0.597" height="71.189" transform="translate(-4212.107 3415.786)"/><rect class="a" width="0.597" height="71.189" transform="translate(-4193.039 3415.786)"/><rect class="a" width="0.597" height="71.189" transform="translate(-4173.97 3415.786)"/><rect class="a" width="0.597" height="71.189" transform="translate(-4154.901 3415.786)"/><rect class="a" width="0.597" height="71.189" transform="translate(-4135.833 3415.786)"/><rect class="a" width="0.597" height="71.189" transform="translate(-4116.764 3415.786)"/><rect class="a" width="0.597" height="71.189" transform="translate(-4097.695 3415.786)"/><rect class="a" width="0.597" height="71.189" transform="translate(-4078.627 3415.786)"/><rect class="a" width="0.597" height="71.189" transform="translate(-4059.558 3415.786)"/><rect class="a" width="0.597" height="71.189" transform="translate(-4040.489 3415.786)"/><rect class="a" width="0.597" height="71.189" transform="translate(-4021.42 3415.786)"/></g><g class="f"><path class="a" d="M-5907.125,3431.3h-3.6v-3.6h3.6Zm-3-.6h2.4v-2.4h-2.4Z"/><path class="a" d="M-5888.056,3431.3h-3.6v-3.6h3.6Zm-3-.6h2.4v-2.4h-2.4Z"/><path class="a" d="M-5868.988,3431.3h-3.6v-3.6h3.6Zm-3-.6h2.4v-2.4h-2.4Z"/><path class="a" d="M-5849.919,3431.3h-3.6v-3.6h3.6Zm-3-.6h2.4v-2.4h-2.4Z"/><path class="a" d="M-5830.85,3431.3h-3.6v-3.6h3.6Zm-3-.6h2.4v-2.4h-2.4Z"/><path class="a" d="M-5811.781,3431.3h-3.6v-3.6h3.6Zm-3-.6h2.4v-2.4h-2.4Z"/><path class="a" d="M-5792.713,3431.3h-3.6v-3.6h3.6Zm-3-.6h2.4v-2.4h-2.4Z"/><path class="a" d="M-5773.644,3431.3h-3.6v-3.6h3.6Zm-3-.6h2.4v-2.4h-2.4Z"/><path class="a" d="M-5754.575,3431.3h-3.6v-3.6h3.6Zm-3-.6h2.4v-2.4h-2.4Z"/><path class="a" d="M-5735.507,3431.3h-3.6v-3.6h3.6Zm-3-.6h2.4v-2.4h-2.4Z"/><path class="a" d="M-5716.438,3431.3h-3.6v-3.6h3.6Zm-3-.6h2.4v-2.4h-2.4Z"/><path class="a" d="M-5697.369,3431.3h-3.6v-3.6h3.6Zm-3-.6h2.4v-2.4h-2.4Z"/><path class="a" d="M-5678.3,3431.3h-3.6v-3.6h3.6Zm-3-.6h2.4v-2.4h-2.4Z"/><path class="a" d="M-5659.232,3431.3h-3.6v-3.6h3.6Zm-3-.6h2.4v-2.4h-2.4Z"/><path class="a" d="M-5640.163,3431.3h-3.6v-3.6h3.6Zm-3-.6h2.4v-2.4h-2.4Z"/><path class="a" d="M-5621.094,3431.3h-3.6v-3.6h3.6Zm-3-.6h2.4v-2.4h-2.4Z"/><path class="a" d="M-5602.025,3431.3h-3.6v-3.6h3.6Zm-3-.6h2.4v-2.4h-2.4Z"/><path class="a" d="M-5582.957,3431.3h-3.6v-3.6h3.6Zm-3-.6h2.4v-2.4h-2.4Z"/><path class="a" d="M-5563.888,3431.3h-3.6v-3.6h3.6Zm-3-.6h2.4v-2.4h-2.4Z"/><path class="a" d="M-5544.819,3431.3h-3.6v-3.6h3.6Zm-3-.6h2.4v-2.4h-2.4Z"/><path class="a" d="M-5525.751,3431.3h-3.6v-3.6h3.6Zm-3-.6h2.4v-2.4h-2.4Z"/><path class="a" d="M-5506.682,3431.3h-3.6v-3.6h3.6Zm-3-.6h2.4v-2.4h-2.4Z"/><path class="a" d="M-5487.613,3431.3h-3.6v-3.6h3.6Zm-3-.6h2.4v-2.4h-2.4Z"/><path class="a" d="M-5468.544,3431.3h-3.6v-3.6h3.6Zm-3-.6h2.4v-2.4h-2.4Z"/><path class="a" d="M-5449.476,3431.3h-3.6v-3.6h3.6Zm-3-.6h2.4v-2.4h-2.4Z"/><path class="a" d="M-5430.407,3431.3h-3.6v-3.6h3.6Zm-3-.6h2.4v-2.4h-2.4Z"/><path class="a" d="M-5411.338,3431.3h-3.6v-3.6h3.6Zm-3-.6h2.4v-2.4h-2.4Z"/><path class="a" d="M-5392.27,3431.3h-3.6v-3.6h3.6Zm-3-.6h2.4v-2.4h-2.4Z"/><path class="a" d="M-5373.2,3431.3h-3.6v-3.6h3.6Zm-3-.6h2.4v-2.4h-2.4Z"/><path class="a" d="M-5354.132,3431.3h-3.6v-3.6h3.6Zm-3-.6h2.4v-2.4h-2.4Z"/><path class="a" d="M-5335.063,3431.3h-3.6v-3.6h3.6Zm-3-.6h2.4v-2.4h-2.4Z"/><path class="a" d="M-5316,3431.3h-3.6v-3.6h3.6Zm-3-.6h2.4v-2.4h-2.4Z"/><path class="a" d="M-5296.926,3431.3h-3.6v-3.6h3.6Zm-3-.6h2.4v-2.4h-2.4Z"/><path class="a" d="M-5277.857,3431.3h-3.6v-3.6h3.6Zm-3-.6h2.4v-2.4h-2.4Z"/><path class="a" d="M-5258.789,3431.3h-3.6v-3.6h3.6Zm-3-.6h2.4v-2.4h-2.4Z"/><path class="a" d="M-5239.72,3431.3h-3.6v-3.6h3.6Zm-3-.6h2.4v-2.4h-2.4Z"/><path class="a" d="M-5220.651,3431.3h-3.6v-3.6h3.6Zm-3-.6h2.4v-2.4h-2.4Z"/><path class="a" d="M-5201.583,3431.3h-3.6v-3.6h3.6Zm-3-.6h2.4v-2.4h-2.4Z"/><path class="a" d="M-5182.514,3431.3h-3.6v-3.6h3.6Zm-3-.6h2.4v-2.4h-2.4Z"/><path class="a" d="M-5163.445,3431.3h-3.6v-3.6h3.6Zm-3-.6h2.4v-2.4h-2.4Z"/><path class="a" d="M-5144.376,3431.3h-3.6v-3.6h3.6Zm-3-.6h2.4v-2.4h-2.4Z"/><path class="a" d="M-5125.308,3431.3h-3.6v-3.6h3.6Zm-3-.6h2.4v-2.4h-2.4Z"/><path class="a" d="M-5106.239,3431.3h-3.6v-3.6h3.6Zm-3-.6h2.4v-2.4h-2.4Z"/><path class="a" d="M-5087.17,3431.3h-3.6v-3.6h3.6Zm-3-.6h2.4v-2.4h-2.4Z"/><path class="a" d="M-5068.1,3431.3h-3.6v-3.6h3.6Zm-3-.6h2.4v-2.4h-2.4Z"/><path class="a" d="M-5049.033,3431.3h-3.6v-3.6h3.6Zm-3-.6h2.4v-2.4h-2.4Z"/><path class="a" d="M-5029.964,3431.3h-3.6v-3.6h3.6Zm-3-.6h2.4v-2.4h-2.4Z"/><path class="a" d="M-5010.9,3431.3h-3.6v-3.6h3.6Zm-3-.6h2.4v-2.4h-2.4Z"/><path class="a" d="M-4991.827,3431.3h-3.6v-3.6h3.6Zm-3-.6h2.4v-2.4h-2.4Z"/><path class="a" d="M-4972.758,3431.3h-3.6v-3.6h3.6Zm-3-.6h2.4v-2.4h-2.4Z"/><path class="a" d="M-4953.689,3431.3h-3.6v-3.6h3.6Zm-3-.6h2.4v-2.4h-2.4Z"/><path class="a" d="M-4934.62,3431.3h-3.6v-3.6h3.6Zm-3-.6h2.4v-2.4h-2.4Z"/><path class="a" d="M-4915.552,3431.3h-3.6v-3.6h3.6Zm-3-.6h2.4v-2.4h-2.4Z"/><path class="a" d="M-4896.483,3431.3h-3.6v-3.6h3.6Zm-3-.6h2.4v-2.4h-2.4Z"/><path class="a" d="M-4877.414,3431.3h-3.6v-3.6h3.6Zm-3-.6h2.4v-2.4h-2.4Z"/><path class="a" d="M-4858.345,3431.3h-3.6v-3.6h3.6Zm-3-.6h2.4v-2.4h-2.4Z"/><path class="a" d="M-4839.277,3431.3h-3.6v-3.6h3.6Zm-3-.6h2.4v-2.4h-2.4Z"/><path class="a" d="M-4820.208,3431.3h-3.6v-3.6h3.6Zm-3-.6h2.4v-2.4h-2.4Z"/><path class="a" d="M-4801.139,3431.3h-3.6v-3.6h3.6Zm-3-.6h2.4v-2.4h-2.4Z"/><path class="a" d="M-4782.071,3431.3h-3.6v-3.6h3.6Zm-3-.6h2.4v-2.4h-2.4Z"/><path class="a" d="M-4763,3431.3h-3.6v-3.6h3.6Zm-3-.6h2.4v-2.4h-2.4Z"/><path class="a" d="M-4743.933,3431.3h-3.6v-3.6h3.6Zm-3-.6h2.4v-2.4h-2.4Z"/><path class="a" d="M-4724.865,3431.3h-3.6v-3.6h3.6Zm-3-.6h2.4v-2.4h-2.4Z"/><path class="a" d="M-4705.8,3431.3h-3.6v-3.6h3.6Zm-3-.6h2.4v-2.4h-2.4Z"/><path class="a" d="M-4686.727,3431.3h-3.6v-3.6h3.6Zm-3-.6h2.4v-2.4h-2.4Z"/><path class="a" d="M-4667.658,3431.3h-3.6v-3.6h3.6Zm-3-.6h2.4v-2.4h-2.4Z"/><path class="a" d="M-4648.59,3431.3h-3.6v-3.6h3.6Zm-3-.6h2.4v-2.4h-2.4Z"/><path class="a" d="M-4629.521,3431.3h-3.6v-3.6h3.6Zm-3-.6h2.4v-2.4h-2.4Z"/><path class="a" d="M-4610.452,3431.3h-3.6v-3.6h3.6Zm-3-.6h2.4v-2.4h-2.4Z"/><path class="a" d="M-4591.384,3431.3h-3.6v-3.6h3.6Zm-3-.6h2.4v-2.4h-2.4Z"/><path class="a" d="M-4572.315,3431.3h-3.6v-3.6h3.6Zm-3-.6h2.4v-2.4h-2.4Z"/><path class="a" d="M-4553.246,3431.3h-3.6v-3.6h3.6Zm-3-.6h2.4v-2.4h-2.4Z"/><path class="a" d="M-4534.177,3431.3h-3.6v-3.6h3.6Zm-3-.6h2.4v-2.4h-2.4Z"/><path class="a" d="M-4515.109,3431.3h-3.6v-3.6h3.6Zm-3-.6h2.4v-2.4h-2.4Z"/><path class="a" d="M-4496.04,3431.3h-3.6v-3.6h3.6Zm-3-.6h2.4v-2.4h-2.4Z"/><path class="a" d="M-4476.971,3431.3h-3.6v-3.6h3.6Zm-3-.6h2.4v-2.4h-2.4Z"/><path class="a" d="M-4457.9,3431.3h-3.6v-3.6h3.6Zm-3-.6h2.4v-2.4h-2.4Z"/><path class="a" d="M-4438.834,3431.3h-3.6v-3.6h3.6Zm-3-.6h2.4v-2.4h-2.4Z"/><path class="a" d="M-4419.765,3431.3h-3.6v-3.6h3.6Zm-3-.6h2.4v-2.4h-2.4Z"/><path class="a" d="M-4400.7,3431.3h-3.6v-3.6h3.6Zm-3-.6h2.4v-2.4h-2.4Z"/><path class="a" d="M-4381.628,3431.3h-3.6v-3.6h3.6Zm-3-.6h2.4v-2.4h-2.4Z"/><path class="a" d="M-4362.559,3431.3h-3.6v-3.6h3.6Zm-3-.6h2.4v-2.4h-2.4Z"/><path class="a" d="M-4343.49,3431.3h-3.6v-3.6h3.6Zm-3-.6h2.4v-2.4h-2.4Z"/><path class="a" d="M-4324.421,3431.3h-3.6v-3.6h3.6Zm-3-.6h2.4v-2.4h-2.4Z"/><path class="a" d="M-4305.353,3431.3h-3.6v-3.6h3.6Zm-3-.6h2.4v-2.4h-2.4Z"/><path class="a" d="M-4286.284,3431.3h-3.6v-3.6h3.6Zm-3-.6h2.4v-2.4h-2.4Z"/><path class="a" d="M-4267.215,3431.3h-3.6v-3.6h3.6Zm-3-.6h2.4v-2.4h-2.4Z"/><path class="a" d="M-4248.147,3431.3h-3.6v-3.6h3.6Zm-3-.6h2.4v-2.4h-2.4Z"/><path class="a" d="M-4229.078,3431.3h-3.6v-3.6h3.6Zm-3-.6h2.4v-2.4h-2.4Z"/><path class="a" d="M-4210.009,3431.3h-3.6v-3.6h3.6Zm-3-.6h2.4v-2.4h-2.4Z"/><path class="a" d="M-4190.94,3431.3h-3.6v-3.6h3.6Zm-3-.6h2.4v-2.4h-2.4Z"/><path class="a" d="M-4171.872,3431.3h-3.6v-3.6h3.6Zm-3-.6h2.4v-2.4h-2.4Z"/><path class="a" d="M-4152.8,3431.3h-3.6v-3.6h3.6Zm-3-.6h2.4v-2.4h-2.4Z"/><path class="a" d="M-4133.734,3431.3h-3.6v-3.6h3.6Zm-3-.6h2.4v-2.4h-2.4Z"/><path class="a" d="M-4114.666,3431.3h-3.6v-3.6h3.6Zm-3-.6h2.4v-2.4h-2.4Z"/><path class="a" d="M-4095.6,3431.3h-3.6v-3.6h3.6Zm-3-.6h2.4v-2.4h-2.4Z"/><path class="a" d="M-4076.528,3431.3h-3.6v-3.6h3.6Zm-3-.6h2.4v-2.4h-2.4Z"/><path class="a" d="M-4057.459,3431.3h-3.6v-3.6h3.6Zm-3-.6h2.4v-2.4h-2.4Z"/><path class="a" d="M-4038.391,3431.3h-3.6v-3.6h3.6Zm-3-.6h2.4v-2.4h-2.4Z"/><path class="a" d="M-4019.322,3431.3h-3.6v-3.6h3.6Zm-3-.6h2.4v-2.4h-2.4Z"/><path class="a" d="M-5907.125,3449.595h-3.6V3446h3.6Zm-3-.6h2.4v-2.4h-2.4Z"/><path class="a" d="M-5868.988,3449.595h-3.6V3446h3.6Zm-3-.6h2.4v-2.4h-2.4Z"/><path class="a" d="M-5830.85,3449.595h-3.6V3446h3.6Zm-3-.6h2.4v-2.4h-2.4Z"/><path class="a" d="M-5792.713,3449.595h-3.6V3446h3.6Zm-3-.6h2.4v-2.4h-2.4Z"/><path class="a" d="M-5754.575,3449.595h-3.6V3446h3.6Zm-3-.6h2.4v-2.4h-2.4Z"/><path class="a" d="M-5716.438,3449.595h-3.6V3446h3.6Zm-3-.6h2.4v-2.4h-2.4Z"/><path class="a" d="M-5678.3,3449.595h-3.6V3446h3.6Zm-3-.6h2.4v-2.4h-2.4Z"/><path class="a" d="M-5640.163,3449.595h-3.6V3446h3.6Zm-3-.6h2.4v-2.4h-2.4Z"/><path class="a" d="M-5602.025,3449.595h-3.6V3446h3.6Zm-3-.6h2.4v-2.4h-2.4Z"/><path class="a" d="M-5563.888,3449.595h-3.6V3446h3.6Zm-3-.6h2.4v-2.4h-2.4Z"/><path class="a" d="M-5525.751,3449.595h-3.6V3446h3.6Zm-3-.6h2.4v-2.4h-2.4Z"/><path class="a" d="M-5487.613,3449.595h-3.6V3446h3.6Zm-3-.6h2.4v-2.4h-2.4Z"/><path class="a" d="M-5449.476,3449.595h-3.6V3446h3.6Zm-3-.6h2.4v-2.4h-2.4Z"/><path class="a" d="M-5411.338,3449.595h-3.6V3446h3.6Zm-3-.6h2.4v-2.4h-2.4Z"/><path class="a" d="M-5373.2,3449.595h-3.6V3446h3.6Zm-3-.6h2.4v-2.4h-2.4Z"/><path class="a" d="M-5335.063,3449.595h-3.6V3446h3.6Zm-3-.6h2.4v-2.4h-2.4Z"/><path class="a" d="M-5296.926,3449.595h-3.6V3446h3.6Zm-3-.6h2.4v-2.4h-2.4Z"/><path class="a" d="M-5258.789,3449.595h-3.6V3446h3.6Zm-3-.6h2.4v-2.4h-2.4Z"/><path class="a" d="M-5220.651,3449.595h-3.6V3446h3.6Zm-3-.6h2.4v-2.4h-2.4Z"/><path class="a" d="M-5182.514,3449.595h-3.6V3446h3.6Zm-3-.6h2.4v-2.4h-2.4Z"/><path class="a" d="M-5144.376,3449.595h-3.6V3446h3.6Zm-3-.6h2.4v-2.4h-2.4Z"/><path class="a" d="M-5106.239,3449.595h-3.6V3446h3.6Zm-3-.6h2.4v-2.4h-2.4Z"/><path class="a" d="M-5068.1,3449.595h-3.6V3446h3.6Zm-3-.6h2.4v-2.4h-2.4Z"/><path class="a" d="M-5029.964,3449.595h-3.6V3446h3.6Zm-3-.6h2.4v-2.4h-2.4Z"/><path class="a" d="M-4991.827,3449.595h-3.6V3446h3.6Zm-3-.6h2.4v-2.4h-2.4Z"/><path class="a" d="M-4953.689,3449.595h-3.6V3446h3.6Zm-3-.6h2.4v-2.4h-2.4Z"/><path class="a" d="M-4915.552,3449.595h-3.6V3446h3.6Zm-3-.6h2.4v-2.4h-2.4Z"/><path class="a" d="M-4877.414,3449.595h-3.6V3446h3.6Zm-3-.6h2.4v-2.4h-2.4Z"/><path class="a" d="M-4839.277,3449.595h-3.6V3446h3.6Zm-3-.6h2.4v-2.4h-2.4Z"/><path class="a" d="M-4801.139,3449.595h-3.6V3446h3.6Zm-3-.6h2.4v-2.4h-2.4Z"/><path class="a" d="M-4763,3449.595h-3.6V3446h3.6Zm-3-.6h2.4v-2.4h-2.4Z"/><path class="a" d="M-4724.865,3449.595h-3.6V3446h3.6Zm-3-.6h2.4v-2.4h-2.4Z"/><path class="a" d="M-4686.727,3449.595h-3.6V3446h3.6Zm-3-.6h2.4v-2.4h-2.4Z"/><path class="a" d="M-4648.59,3449.595h-3.6V3446h3.6Zm-3-.6h2.4v-2.4h-2.4Z"/><path class="a" d="M-4610.452,3449.595h-3.6V3446h3.6Zm-3-.6h2.4v-2.4h-2.4Z"/><path class="a" d="M-4572.315,3449.595h-3.6V3446h3.6Zm-3-.6h2.4v-2.4h-2.4Z"/><path class="a" d="M-4534.177,3449.595h-3.6V3446h3.6Zm-3-.6h2.4v-2.4h-2.4Z"/><path class="a" d="M-4496.04,3449.595h-3.6V3446h3.6Zm-3-.6h2.4v-2.4h-2.4Z"/><path class="a" d="M-4457.9,3449.595h-3.6V3446h3.6Zm-3-.6h2.4v-2.4h-2.4Z"/><path class="a" d="M-4419.765,3449.595h-3.6V3446h3.6Zm-3-.6h2.4v-2.4h-2.4Z"/><path class="a" d="M-4381.628,3449.595h-3.6V3446h3.6Zm-3-.6h2.4v-2.4h-2.4Z"/><path class="a" d="M-4343.49,3449.595h-3.6V3446h3.6Zm-3-.6h2.4v-2.4h-2.4Z"/><path class="a" d="M-4305.353,3449.595h-3.6V3446h3.6Zm-3-.6h2.4v-2.4h-2.4Z"/><path class="a" d="M-4267.215,3449.595h-3.6V3446h3.6Zm-3-.6h2.4v-2.4h-2.4Z"/><path class="a" d="M-4229.078,3449.595h-3.6V3446h3.6Zm-3-.6h2.4v-2.4h-2.4Z"/><path class="a" d="M-4190.94,3449.595h-3.6V3446h3.6Zm-3-.6h2.4v-2.4h-2.4Z"/><path class="a" d="M-4152.8,3449.595h-3.6V3446h3.6Zm-3-.6h2.4v-2.4h-2.4Z"/><path class="a" d="M-4114.666,3449.595h-3.6V3446h3.6Zm-3-.6h2.4v-2.4h-2.4Z"/><path class="a" d="M-4076.528,3449.595h-3.6V3446h3.6Zm-3-.6h2.4v-2.4h-2.4Z"/><path class="a" d="M-4038.391,3449.595h-3.6V3446h3.6Zm-3-.6h2.4v-2.4h-2.4Z"/><path class="a" d="M-5907.125,3467.889h-3.6v-3.6h3.6Zm-3-.6h2.4v-2.4h-2.4Z"/><path class="a" d="M-5888.056,3467.889h-3.6v-3.6h3.6Zm-3-.6h2.4v-2.4h-2.4Z"/><path class="a" d="M-5868.988,3467.889h-3.6v-3.6h3.6Zm-3-.6h2.4v-2.4h-2.4Z"/><path class="a" d="M-5849.919,3467.889h-3.6v-3.6h3.6Zm-3-.6h2.4v-2.4h-2.4Z"/><path class="a" d="M-5830.85,3467.889h-3.6v-3.6h3.6Zm-3-.6h2.4v-2.4h-2.4Z"/><path class="a" d="M-5811.781,3467.889h-3.6v-3.6h3.6Zm-3-.6h2.4v-2.4h-2.4Z"/><path class="a" d="M-5792.713,3467.889h-3.6v-3.6h3.6Zm-3-.6h2.4v-2.4h-2.4Z"/><path class="a" d="M-5773.644,3467.889h-3.6v-3.6h3.6Zm-3-.6h2.4v-2.4h-2.4Z"/><path class="a" d="M-5754.575,3467.889h-3.6v-3.6h3.6Zm-3-.6h2.4v-2.4h-2.4Z"/><path class="a" d="M-5735.507,3467.889h-3.6v-3.6h3.6Zm-3-.6h2.4v-2.4h-2.4Z"/><path class="a" d="M-5716.438,3467.889h-3.6v-3.6h3.6Zm-3-.6h2.4v-2.4h-2.4Z"/><path class="a" d="M-5697.369,3467.889h-3.6v-3.6h3.6Zm-3-.6h2.4v-2.4h-2.4Z"/><path class="a" d="M-5678.3,3467.889h-3.6v-3.6h3.6Zm-3-.6h2.4v-2.4h-2.4Z"/><path class="a" d="M-5659.232,3467.889h-3.6v-3.6h3.6Zm-3-.6h2.4v-2.4h-2.4Z"/><path class="a" d="M-5640.163,3467.889h-3.6v-3.6h3.6Zm-3-.6h2.4v-2.4h-2.4Z"/><path class="a" d="M-5621.094,3467.889h-3.6v-3.6h3.6Zm-3-.6h2.4v-2.4h-2.4Z"/><path class="a" d="M-5602.025,3467.889h-3.6v-3.6h3.6Zm-3-.6h2.4v-2.4h-2.4Z"/><path class="a" d="M-5582.957,3467.889h-3.6v-3.6h3.6Zm-3-.6h2.4v-2.4h-2.4Z"/><path class="a" d="M-5563.888,3467.889h-3.6v-3.6h3.6Zm-3-.6h2.4v-2.4h-2.4Z"/><path class="a" d="M-5544.819,3467.889h-3.6v-3.6h3.6Zm-3-.6h2.4v-2.4h-2.4Z"/><path class="a" d="M-5525.751,3467.889h-3.6v-3.6h3.6Zm-3-.6h2.4v-2.4h-2.4Z"/><path class="a" d="M-5506.682,3467.889h-3.6v-3.6h3.6Zm-3-.6h2.4v-2.4h-2.4Z"/><path class="a" d="M-5487.613,3467.889h-3.6v-3.6h3.6Zm-3-.6h2.4v-2.4h-2.4Z"/><path class="a" d="M-5468.544,3467.889h-3.6v-3.6h3.6Zm-3-.6h2.4v-2.4h-2.4Z"/><path class="a" d="M-5449.476,3467.889h-3.6v-3.6h3.6Zm-3-.6h2.4v-2.4h-2.4Z"/><path class="a" d="M-5430.407,3467.889h-3.6v-3.6h3.6Zm-3-.6h2.4v-2.4h-2.4Z"/><path class="a" d="M-5411.338,3467.889h-3.6v-3.6h3.6Zm-3-.6h2.4v-2.4h-2.4Z"/><path class="a" d="M-5392.27,3467.889h-3.6v-3.6h3.6Zm-3-.6h2.4v-2.4h-2.4Z"/><path class="a" d="M-5373.2,3467.889h-3.6v-3.6h3.6Zm-3-.6h2.4v-2.4h-2.4Z"/><path class="a" d="M-5354.132,3467.889h-3.6v-3.6h3.6Zm-3-.6h2.4v-2.4h-2.4Z"/><path class="a" d="M-5335.063,3467.889h-3.6v-3.6h3.6Zm-3-.6h2.4v-2.4h-2.4Z"/><path class="a" d="M-5316,3467.889h-3.6v-3.6h3.6Zm-3-.6h2.4v-2.4h-2.4Z"/><path class="a" d="M-5296.926,3467.889h-3.6v-3.6h3.6Zm-3-.6h2.4v-2.4h-2.4Z"/><path class="a" d="M-5277.857,3467.889h-3.6v-3.6h3.6Zm-3-.6h2.4v-2.4h-2.4Z"/><path class="a" d="M-5258.789,3467.889h-3.6v-3.6h3.6Zm-3-.6h2.4v-2.4h-2.4Z"/><path class="a" d="M-5239.72,3467.889h-3.6v-3.6h3.6Zm-3-.6h2.4v-2.4h-2.4Z"/><path class="a" d="M-5220.651,3467.889h-3.6v-3.6h3.6Zm-3-.6h2.4v-2.4h-2.4Z"/><path class="a" d="M-5201.583,3467.889h-3.6v-3.6h3.6Zm-3-.6h2.4v-2.4h-2.4Z"/><path class="a" d="M-5182.514,3467.889h-3.6v-3.6h3.6Zm-3-.6h2.4v-2.4h-2.4Z"/><path class="a" d="M-5163.445,3467.889h-3.6v-3.6h3.6Zm-3-.6h2.4v-2.4h-2.4Z"/><path class="a" d="M-5144.376,3467.889h-3.6v-3.6h3.6Zm-3-.6h2.4v-2.4h-2.4Z"/><path class="a" d="M-5125.308,3467.889h-3.6v-3.6h3.6Zm-3-.6h2.4v-2.4h-2.4Z"/><path class="a" d="M-5106.239,3467.889h-3.6v-3.6h3.6Zm-3-.6h2.4v-2.4h-2.4Z"/><path class="a" d="M-5087.17,3467.889h-3.6v-3.6h3.6Zm-3-.6h2.4v-2.4h-2.4Z"/><path class="a" d="M-5068.1,3467.889h-3.6v-3.6h3.6Zm-3-.6h2.4v-2.4h-2.4Z"/><path class="a" d="M-5049.033,3467.889h-3.6v-3.6h3.6Zm-3-.6h2.4v-2.4h-2.4Z"/><path class="a" d="M-5029.964,3467.889h-3.6v-3.6h3.6Zm-3-.6h2.4v-2.4h-2.4Z"/><path class="a" d="M-5010.9,3467.889h-3.6v-3.6h3.6Zm-3-.6h2.4v-2.4h-2.4Z"/><path class="a" d="M-4991.827,3467.889h-3.6v-3.6h3.6Zm-3-.6h2.4v-2.4h-2.4Z"/><path class="a" d="M-4972.758,3467.889h-3.6v-3.6h3.6Zm-3-.6h2.4v-2.4h-2.4Z"/><path class="a" d="M-4953.689,3467.889h-3.6v-3.6h3.6Zm-3-.6h2.4v-2.4h-2.4Z"/><path class="a" d="M-4934.62,3467.889h-3.6v-3.6h3.6Zm-3-.6h2.4v-2.4h-2.4Z"/><path class="a" d="M-4915.552,3467.889h-3.6v-3.6h3.6Zm-3-.6h2.4v-2.4h-2.4Z"/><path class="a" d="M-4896.483,3467.889h-3.6v-3.6h3.6Zm-3-.6h2.4v-2.4h-2.4Z"/><path class="a" d="M-4877.414,3467.889h-3.6v-3.6h3.6Zm-3-.6h2.4v-2.4h-2.4Z"/><path class="a" d="M-4858.345,3467.889h-3.6v-3.6h3.6Zm-3-.6h2.4v-2.4h-2.4Z"/><path class="a" d="M-4839.277,3467.889h-3.6v-3.6h3.6Zm-3-.6h2.4v-2.4h-2.4Z"/><path class="a" d="M-4820.208,3467.889h-3.6v-3.6h3.6Zm-3-.6h2.4v-2.4h-2.4Z"/><path class="a" d="M-4801.139,3467.889h-3.6v-3.6h3.6Zm-3-.6h2.4v-2.4h-2.4Z"/><path class="a" d="M-4782.071,3467.889h-3.6v-3.6h3.6Zm-3-.6h2.4v-2.4h-2.4Z"/><path class="a" d="M-4763,3467.889h-3.6v-3.6h3.6Zm-3-.6h2.4v-2.4h-2.4Z"/><path class="a" d="M-4743.933,3467.889h-3.6v-3.6h3.6Zm-3-.6h2.4v-2.4h-2.4Z"/><path class="a" d="M-4724.865,3467.889h-3.6v-3.6h3.6Zm-3-.6h2.4v-2.4h-2.4Z"/><path class="a" d="M-4705.8,3467.889h-3.6v-3.6h3.6Zm-3-.6h2.4v-2.4h-2.4Z"/><path class="a" d="M-4686.727,3467.889h-3.6v-3.6h3.6Zm-3-.6h2.4v-2.4h-2.4Z"/><path class="a" d="M-4667.658,3467.889h-3.6v-3.6h3.6Zm-3-.6h2.4v-2.4h-2.4Z"/><path class="a" d="M-4648.59,3467.889h-3.6v-3.6h3.6Zm-3-.6h2.4v-2.4h-2.4Z"/><path class="a" d="M-4629.521,3467.889h-3.6v-3.6h3.6Zm-3-.6h2.4v-2.4h-2.4Z"/><path class="a" d="M-4610.452,3467.889h-3.6v-3.6h3.6Zm-3-.6h2.4v-2.4h-2.4Z"/><path class="a" d="M-4591.384,3467.889h-3.6v-3.6h3.6Zm-3-.6h2.4v-2.4h-2.4Z"/><path class="a" d="M-4572.315,3467.889h-3.6v-3.6h3.6Zm-3-.6h2.4v-2.4h-2.4Z"/><path class="a" d="M-4553.246,3467.889h-3.6v-3.6h3.6Zm-3-.6h2.4v-2.4h-2.4Z"/><path class="a" d="M-4534.177,3467.889h-3.6v-3.6h3.6Zm-3-.6h2.4v-2.4h-2.4Z"/><path class="a" d="M-4515.109,3467.889h-3.6v-3.6h3.6Zm-3-.6h2.4v-2.4h-2.4Z"/><path class="a" d="M-4496.04,3467.889h-3.6v-3.6h3.6Zm-3-.6h2.4v-2.4h-2.4Z"/><path class="a" d="M-4476.971,3467.889h-3.6v-3.6h3.6Zm-3-.6h2.4v-2.4h-2.4Z"/><path class="a" d="M-4457.9,3467.889h-3.6v-3.6h3.6Zm-3-.6h2.4v-2.4h-2.4Z"/><path class="a" d="M-4438.834,3467.889h-3.6v-3.6h3.6Zm-3-.6h2.4v-2.4h-2.4Z"/><path class="a" d="M-4419.765,3467.889h-3.6v-3.6h3.6Zm-3-.6h2.4v-2.4h-2.4Z"/><path class="a" d="M-4400.7,3467.889h-3.6v-3.6h3.6Zm-3-.6h2.4v-2.4h-2.4Z"/><path class="a" d="M-4381.628,3467.889h-3.6v-3.6h3.6Zm-3-.6h2.4v-2.4h-2.4Z"/><path class="a" d="M-4362.559,3467.889h-3.6v-3.6h3.6Zm-3-.6h2.4v-2.4h-2.4Z"/><path class="a" d="M-4343.49,3467.889h-3.6v-3.6h3.6Zm-3-.6h2.4v-2.4h-2.4Z"/><path class="a" d="M-4324.421,3467.889h-3.6v-3.6h3.6Zm-3-.6h2.4v-2.4h-2.4Z"/><path class="a" d="M-4305.353,3467.889h-3.6v-3.6h3.6Zm-3-.6h2.4v-2.4h-2.4Z"/><path class="a" d="M-4286.284,3467.889h-3.6v-3.6h3.6Zm-3-.6h2.4v-2.4h-2.4Z"/><path class="a" d="M-4267.215,3467.889h-3.6v-3.6h3.6Zm-3-.6h2.4v-2.4h-2.4Z"/><path class="a" d="M-4248.147,3467.889h-3.6v-3.6h3.6Zm-3-.6h2.4v-2.4h-2.4Z"/><path class="a" d="M-4229.078,3467.889h-3.6v-3.6h3.6Zm-3-.6h2.4v-2.4h-2.4Z"/><path class="a" d="M-4210.009,3467.889h-3.6v-3.6h3.6Zm-3-.6h2.4v-2.4h-2.4Z"/><path class="a" d="M-4190.94,3467.889h-3.6v-3.6h3.6Zm-3-.6h2.4v-2.4h-2.4Z"/><path class="a" d="M-4171.872,3467.889h-3.6v-3.6h3.6Zm-3-.6h2.4v-2.4h-2.4Z"/><path class="a" d="M-4152.8,3467.889h-3.6v-3.6h3.6Zm-3-.6h2.4v-2.4h-2.4Z"/><path class="a" d="M-4133.734,3467.889h-3.6v-3.6h3.6Zm-3-.6h2.4v-2.4h-2.4Z"/><path class="a" d="M-4114.666,3467.889h-3.6v-3.6h3.6Zm-3-.6h2.4v-2.4h-2.4Z"/><path class="a" d="M-4095.6,3467.889h-3.6v-3.6h3.6Zm-3-.6h2.4v-2.4h-2.4Z"/><path class="a" d="M-4076.528,3467.889h-3.6v-3.6h3.6Zm-3-.6h2.4v-2.4h-2.4Z"/><path class="a" d="M-4057.459,3467.889h-3.6v-3.6h3.6Zm-3-.6h2.4v-2.4h-2.4Z"/><path class="a" d="M-4038.391,3467.889h-3.6v-3.6h3.6Zm-3-.6h2.4v-2.4h-2.4Z"/><path class="a" d="M-4019.322,3467.889h-3.6v-3.6h3.6Zm-3-.6h2.4v-2.4h-2.4Z"/></g><g class="g"><rect class="a" width="2" height="2" transform="translate(-5890.856 3446.794)"/><rect class="a" width="2" height="2" transform="translate(-5852.719 3446.794)"/><rect class="a" width="2" height="2" transform="translate(-5814.582 3446.794)"/><rect class="a" width="2" height="2" transform="translate(-5776.444 3446.794)"/><rect class="a" width="2" height="2" transform="translate(-5738.307 3446.794)"/><rect class="a" width="2" height="2" transform="translate(-5700.169 3446.794)"/><rect class="a" width="2" height="2" transform="translate(-5662.032 3446.794)"/><rect class="a" width="2" height="2" transform="translate(-5623.894 3446.794)"/><rect class="a" width="2" height="2" transform="translate(-5585.757 3446.794)"/><rect class="a" width="2" height="2" transform="translate(-5547.62 3446.794)"/><rect class="a" width="2" height="2" transform="translate(-5509.482 3446.794)"/><rect class="a" width="2" height="2" transform="translate(-5471.345 3446.794)"/><rect class="a" width="2" height="2" transform="translate(-5433.207 3446.794)"/><rect class="a" width="2" height="2" transform="translate(-5395.07 3446.794)"/><rect class="a" width="2" height="2" transform="translate(-5356.932 3446.794)"/><rect class="a" width="2" height="2" transform="translate(-5318.795 3446.794)"/><rect class="a" width="2" height="2" transform="translate(-5280.657 3446.794)"/><rect class="a" width="2" height="2" transform="translate(-5242.52 3446.794)"/><rect class="a" width="2" height="2" transform="translate(-5204.382 3446.794)"/><rect class="a" width="2" height="2" transform="translate(-5166.245 3446.794)"/><rect class="a" width="2" height="2" transform="translate(-5128.107 3446.794)"/><rect class="a" width="2" height="2" transform="translate(-5089.97 3446.794)"/><rect class="a" width="2" height="2" transform="translate(-5051.833 3446.794)"/><rect class="a" width="2" height="2" transform="translate(-5013.695 3446.794)"/><rect class="a" width="2" height="2" transform="translate(-4975.558 3446.794)"/><rect class="a" width="2" height="2" transform="translate(-4937.42 3446.794)"/><rect class="a" width="2" height="2" transform="translate(-4899.283 3446.794)"/><rect class="a" width="2" height="2" transform="translate(-4861.146 3446.794)"/><rect class="a" width="2" height="2" transform="translate(-4823.008 3446.794)"/><rect class="a" width="2" height="2" transform="translate(-4784.871 3446.794)"/><rect class="a" width="2" height="2" transform="translate(-4746.733 3446.794)"/><rect class="a" width="2" height="2" transform="translate(-4708.596 3446.794)"/><rect class="a" width="2" height="2" transform="translate(-4670.458 3446.794)"/><rect class="a" width="2" height="2" transform="translate(-4632.321 3446.794)"/><rect class="a" width="2" height="2" transform="translate(-4594.184 3446.794)"/><rect class="a" width="2" height="2" transform="translate(-4556.046 3446.794)"/><rect class="a" width="2" height="2" transform="translate(-4517.909 3446.794)"/><rect class="a" width="2" height="2" transform="translate(-4479.771 3446.794)"/><rect class="a" width="2" height="2" transform="translate(-4441.634 3446.794)"/><rect class="a" width="2" height="2" transform="translate(-4403.497 3446.794)"/><rect class="a" width="2" height="2" transform="translate(-4365.359 3446.794)"/><rect class="a" width="2" height="2" transform="translate(-4327.222 3446.794)"/><rect class="a" width="2" height="2" transform="translate(-4289.084 3446.794)"/><rect class="a" width="2" height="2" transform="translate(-4250.947 3446.794)"/><rect class="a" width="2" height="2" transform="translate(-4212.809 3446.794)"/><rect class="a" width="2" height="2" transform="translate(-4174.672 3446.794)"/><rect class="a" width="2" height="2" transform="translate(-4136.534 3446.794)"/><rect class="a" width="2" height="2" transform="translate(-4098.397 3446.794)"/><rect class="a" width="2" height="2" transform="translate(-4060.26 3446.794)"/><rect class="a" width="2" height="2" transform="translate(-4022.122 3446.794)"/></g></g><path class="h" d="M0,0H777.4l1.022,1.016L0,1Z" transform="translate(0 47)"/><path class="h" d="M778.422,0H1.022L0,1.016,778.422,1Z" transform="translate(1141.578 46.984)"/><path class="i" d="M-4292.021,1907.43c38.019,19.93,35.59,39.99,54.452,52.78a43.461,43.461,0,0,0,24.359,7.22h302.378a43.464,43.464,0,0,0,24.36-7.22c18.862-12.79,16.433-32.85,54.451-52.78Z" transform="translate(5022.021 -1907.43)"/><path class="i" d="M-4277.021,1907.43c38.019,19.93,35.59,39.99,54.452,52.78a43.461,43.461,0,0,0,24.359,7.22h272.378a43.464,43.464,0,0,0,24.36-7.22c18.862-12.79,16.433-32.85,54.451-52.78Z" transform="translate(5022.021 -1907.43)"/><path class="i" d="M-4262.021,1907.43c38.019,19.93,35.59,39.99,54.452,52.78a43.461,43.461,0,0,0,24.359,7.22h242.378a43.464,43.464,0,0,0,24.36-7.22c18.862-12.79,16.433-32.85,54.451-52.78Z" transform="translate(5022.021 -1907.43)"/><path class="j" d="M-4213.233,2605.862h-302.413a44.132,44.132,0,0,1-24.619-7.193c-7.479-5-11.725-11.229-16.221-17.824-7.108-10.429-15.165-22.249-38.129-34.113l.478-.869c23.191,11.982,31.323,23.912,38.5,34.438,4.632,6.8,8.634,12.667,15.946,17.553a42.881,42.881,0,0,0,24.043,7.022h302.067a43.283,43.283,0,0,0,24.05-7.025c7.308-4.883,11.31-10.754,15.942-17.55,7.175-10.527,15.307-22.457,38.5-34.438l.477.869c-22.964,11.863-31.021,23.684-38.129,34.113-4.5,6.6-8.742,12.825-16.217,17.821A44.211,44.211,0,0,1-4213.233,2605.862Z" transform="translate(5324.615 -2545.863)"/><path class="k" d="M2920.169,30h-40" transform="translate(-2159.17 -6)"/><path class="k" d="M2880.169,30h40" transform="translate(-1720.669 -6)"/><path class="l" d="M4,0l.02,4.655L8,7,4,4.69,0,7,3.98,4.655Z" transform="translate(712.5 28) rotate(-90)"/><path class="l" d="M4,0l.02,4.655L8,7,4,4.69,0,7,3.98,4.655Z" transform="translate(1208 20) rotate(90)"/><g class="m"><g transform="translate(2 2)"><circle class="n" cx="14" cy="14" r="14" transform="translate(944 44)"/><circle class="o" cx="10.5" cy="10.5" r="10.5" transform="translate(947.5 47.5)"/><circle class="p" cx="7" cy="7" r="7" transform="translate(951 51)"/></g></g></g></svg>