<?xml version="1.0" standalone="no"?><!DOCTYPE svg PUBLIC "-//W3C//DTD SVG 1.1//EN" "http://www.w3.org/Graphics/SVG/1.1/DTD/svg11.dtd"><svg t="1649662508972" class="icon" viewBox="0 0 1024 1024" version="1.1" xmlns="http://www.w3.org/2000/svg" p-id="3295" xmlns:xlink="http://www.w3.org/1999/xlink" width="15" height="15"><defs><style type="text/css">@font-face { font-family: feedback-iconfont; src: url("//at.alicdn.com/t/font_1031158_u69w8yhxdu.woff2?t=1630033759944") format("woff2"), url("//at.alicdn.com/t/font_1031158_u69w8yhxdu.woff?t=1630033759944") format("woff"), url("//at.alicdn.com/t/font_1031158_u69w8yhxdu.ttf?t=1630033759944") format("truetype"); }
</style></defs><path d="M682.666667 484.266667l-237.226667-220.586667a35.84 35.84 0 1 0-49.493333 52.48L603.733333 512l-207.786666 193.28a35.84 35.84 0 1 0 49.066666 52.48L682.666667 536.746667a35.84 35.84 0 0 0 0-52.48zM512 0a512 512 0 1 0 512 512A512 512 0 0 0 512 0z m0 72.106667a439.466667 439.466667 0 0 1 170.666667 844.373333A439.466667 439.466667 0 0 1 200.533333 200.533333a438.613333 438.613333 0 0 1 311.04-128z" fill="#2173E9" p-id="3296"></path></svg>